<svg xmlns="http://www.w3.org/2000/svg" viewBox="0 0 480 320" fill="none" role="img" aria-labelledby="title desc">
  <title id="title">Selected for the Top100 cohort</title>
  <desc id="desc">A gold star medallion rests on an award certificate.</desc>
  <path d="M86 58c0-12 10-22 22-22h264c12 0 22 10 22 22v207c0 12-10 22-22 22H108c-12 0-22-10-22-22V58Z" fill="#FFF8E8"/>
  <path d="M111 83h163M111 101h113M111 238h150M111 253h102" stroke="#10151F" stroke-opacity=".2" stroke-width="7" stroke-linecap="round"/>
  <path d="m312 181-12 90 37-19 33 26 12-91" fill="#F36D21"/>
  <path d="m337 185 13 85 27-24 36 11-17-86" fill="#D75A1E"/>
  <circle cx="337" cy="135" r="76" fill="#E8A91B"/>
  <circle cx="337" cy="135" r="64" fill="#10151F"/>
  <circle cx="337" cy="135" r="54" stroke="#F8C94E" stroke-width="2"/>
  <path d="m337 96 11 23 25 3-18 17 5 25-23-12-23 12 5-25-18-17 25-3 11-23Z" fill="#F8C94E"/>
  <path d="m120 151 7 13 14 2-10 10 2 14-13-7-13 7 2-14-10-10 14-2 7-13Z" fill="#F36D21"/>
  <circle cx="395" cy="69" r="8" fill="#F36D21"/><circle cx="71" cy="215" r="7" fill="#FFF8E8"/>
</svg>
